<svg xmlns="http://www.w3.org/2000/svg" viewBox="0 0 100 100" width="100" height="100"><defs><linearGradient id="g" x1="20" y1="14" x2="82" y2="86" gradientUnits="userSpaceOnUse"><stop offset="0" stop-color="#9B8CFF"></stop><stop offset=".55" stop-color="#5BC8E6"></stop><stop offset="1" stop-color="#36D6A6"></stop></linearGradient><linearGradient id="bg" x1="0" y1="0" x2="0" y2="100" gradientUnits="userSpaceOnUse"><stop offset="0" stop-color="#1C2030"></stop><stop offset="1" stop-color="#12141C"></stop></linearGradient></defs><rect x="0" y="0" width="100" height="100" rx="22" fill="url(#bg)"></rect><g transform="translate(20,20) scale(0.6)">
  <path d="M41 23 C60 15 81 27 80 49 C79 70 61 83 43 80 C28.5 77.5 19.5 64 25 50 C29 39.5 41 37 49 47 C53.5 52.5 51 59 48.5 58.5" fill="none" stroke="url(#g)" stroke-width="15.5" stroke-linecap="round" stroke-linejoin="round"></path>
  <ellipse cx="41" cy="23" rx="12.5" ry="11.5" fill="url(#g)"></ellipse>
  <path d="M64 78 L67 90 M82 56 L92 57 M30 66 L22 75" fill="none" stroke="url(#g)" stroke-width="6.5" stroke-linecap="round"></path>
  <path d="M44 30 C57 25 71 33 71 47" fill="none" stroke="#ffffff" stroke-opacity=".28" stroke-width="4" stroke-linecap="round"></path>
  <circle cx="37.5" cy="20.5" r="3.1" fill="#0C0D11"></circle>
  <circle cx="38.6" cy="19.4" r="1.05" fill="#fff"></circle></g></svg>